<svg data-v-0dd9719b="" version="1.0" xmlns="http://www.w3.org/2000/svg" xmlns:xlink="http://www.w3.org/1999/xlink" width="100%" height="100%" viewBox="0 0 340.000000 250.000000" preserveAspectRatio="xMidYMid meet" color-interpolation-filters="sRGB" style="margin: auto;"> <rect data-v-0dd9719b="" x="0" y="0" width="100%" height="100%" fill="#fdf3eb" fill-opacity="1" class="background"></rect> <rect data-v-0dd9719b="" x="0" y="0" width="100%" height="100%" fill="url(#watermark)" fill-opacity="1" class="watermarklayer"></rect> <g data-v-0dd9719b="" fill="#e69b41" class="icon-text-wrapper icon-svg-group iconsvg" transform="translate(53.63499450683594,95.00869750976562)"><g class="iconsvg-imagesvg" transform="translate(0,0)"><g><rect fill="#e69b41" fill-opacity="0" stroke-width="2" x="0" y="0" width="60" height="59.98260504453709" class="image-rect"></rect> <svg filter="url(#colors6778642038)" x="0" y="0" width="60" height="59.98260504453709" filtersec="colorsf97212523" class="image-svg-svg primary" style="overflow: visible;"><svg xmlns="http://www.w3.org/2000/svg" viewBox="-0.000003895479949278524 -0.00003627472688094713 68.8600082397461 68.84004211425781"><g><path d="M33.88 37c-5.55-3.69-11.32-5.32-17.15-4.85-7.93.65-14.15 6.27-16.73 9v5.39c3.77-3.67 9.75-8.06 17.2-8.67 6.11-.5 10.45.92 17.84 5.83a30.88 30.88 0 0 0 19.26 4.68 31.14 31.14 0 0 0 14.53-5.7v-6.79A27.77 27.77 0 0 1 54 42.65c-6.58.78-13.35-1.11-20.12-5.65zm19.31-4.76c-6.19.73-9.3-1.15-16.36-5.84-6.21-4.13-15.91-5-20.93-4.61C8.79 22.4 3 26.4 0 29v5.32c3.8-3.12 9.45-6.57 16.32-7.13s13.83 1.34 20.35 5.67c5.74 3.82 11.38 5.43 16.75 4.79C59 37 64.15 34 68.84 28.87v-6.63c-3.35 4.2-8.6 9.2-15.65 10.04zM56 0H12.83A12.83 12.83 0 0 0 0 12.83v9.78a32.31 32.31 0 0 1 15.49-5.81c6.84-.56 17.31.9 24.13 5.44 7 4.66 8.75 5.53 13 5 7.78-.92 13.24-9.25 15.3-12.39l.94-1.34v-.7A12.83 12.83 0 0 0 56 0zM32.24 47.94c-6.44-4.28-9.72-5.4-14.63-5-9.3.76-16.23 9.4-17.61 11.25V56a12.83 12.83 0 0 0 12.83 12.84H56A12.83 12.83 0 0 0 68.84 56v-7.29a36.17 36.17 0 0 1-13.94 4.68 35.81 35.81 0 0 1-22.66-5.45z"></path></g></svg></svg> <defs><filter id="colors6778642038"><feColorMatrix type="matrix" values="0 0 0 0 0.4453125  0 0 0 0 0.29296875  0 0 0 0 0.2265625  0 0 0 1 0" class="icon-fecolormatrix"></feColorMatrix></filter> <filter id="colorsf97212523"><feColorMatrix type="matrix" values="0 0 0 0 0.99609375  0 0 0 0 0.99609375  0 0 0 0 0.99609375  0 0 0 1 0" class="icon-fecolormatrix"></feColorMatrix></filter> <filter id="colorsb4610086502"><feColorMatrix type="matrix" values="0 0 0 0 0  0 0 0 0 0  0 0 0 0 0  0 0 0 1 0" class="icon-fecolormatrix"></feColorMatrix></filter></defs></g></g> <g transform="translate(67,6.3200531005859375)"><g data-gra="path-name" fill-rule="" class="tp-name iconsvg-namesvg" transform="translate(0,0)"><g transform="scale(1)"><g><path d="M13.32-23.45L5.63-23.45 5-31.14 12.69-31.14 13.32-23.45ZM12.01-14.04L4.32-14.04 3.69-21.73 11.38-21.73 12.01-14.04ZM7.42 0.4L-0.27 0.4 4.09-12.33 11.79-12.33 7.42 0.4ZM15.25-31.05L41.67-31.05 41.04-26.55 39.51-26.55 36.05-2.02Q35.91-1.03 35.12-0.36 34.34 0.32 33.3 0.32L33.3 0.32 25.96 0.32 29.16-3.01 32.49-26.64 14.63-26.64 15.25-31.05ZM15.79-23.58L30.33-23.58 28.13-7.96 13.59-7.96 15.79-23.58ZM22.27-11.52L23.49-20.02 21.46-20.02 20.25-11.52 22.27-11.52ZM44.55-29.83L59.04-29.83 59.13-30.29 57.69-31.99 67.95-31.99 67.63-29.83 82.17-29.83 81.58-25.56 67-25.56 66.73-23.45 79.56-23.45 76.63-2.56Q76.41-1.26 75.42-0.43 74.43 0.4 73.13 0.4L73.13 0.4 65.92 0.4 69.97-3.78 72.13-19.17 51.61-19.17 48.82 0.4 41.98 0.4 45.36-23.45 58.14-23.45 58.45-25.56 43.96-25.56 44.55-29.83ZM59.49-17.46L60.16-14.89 62.37-14.89 63.77-17.46 70.16-17.46 68.76-14.89 70.25-14.89 69.7-11.07 63.9-11.07 63.67-9.31 69.48-9.31 68.94-5.49 63.13-5.49 62.46-0.77 56.07-0.77 56.74-5.49 50.94-5.49 51.48-9.31 57.28-9.31 57.51-11.07 51.7-11.07 52.24-14.89 53.73-14.89 53.05-17.46 59.49-17.46ZM113.13-31.95L118.53-31.95 117.41-27.95 123.48-27.95 122.98-24.3 121.91-24.3 120.96-17.32 117.31-9.76 120.55 0.36 115.29 0.36 114.16-3.19 112.45 0.32 107.5 0.32 112.23-9.27 109.62-17.5 114.88-17.5 115.42-15.79 116.64-18.27 117.45-24.3 116.37-24.3 114.84-18.81 109.53-18.81 113.13-31.95ZM106.69 0.04L99.99 0.04 101.52-10.8 98.82-10.8 97.33-0.04 91.89-0.04 93.91-14.58 107.37-14.58 105.93-4.18 107.46-5.31 106.69 0.04ZM93.87-25.15L93.15-20.02 90.27 0.4 83.52 0.4 86.13-18.31 84.78-18 85.5-23.13 93.87-25.15ZM99.81-29.61L99.09-24.43 99.94-24.43 100.8-30.64 100.03-31.9 105.3-31.9 104.27-24.43 105.12-24.43 105.84-29.61 110.07-29.61 108.85-20.88 94.45-20.88 95.67-29.61 99.81-29.61ZM94.59-19.71L108.41-19.71 107.86-15.71 94.05-15.71 94.59-19.71ZM94.86-31.99L94.14-26.86 85.72-24.84 86.44-29.97 94.86-31.99ZM128.47 0.4L131.63-22.14 127.17-22.14 127.75-26.41 132.25-26.41 132.84-30.6 131.8-31.9 139.45-31.9 138.69-26.41 142.06-26.41 141.48-22.14 138.06-22.14 134.91 0.4 128.47 0.4ZM144.36 0.36L148.23-3.73 149.85-15.16 142.02-15.16 142.65-19.44 164.02-19.44 163.39-15.16 157.36-15.16 155.61-2.7Q155.43-1.4 154.44-0.52 153.45 0.36 152.14 0.36L152.14 0.36 144.36 0.36ZM158.35-21.11L158.89-24.97 148.99-24.97 148.45-21.11 142.42-21.11 143.5-28.84 150.75-28.84 150.93-30.24 149.63-31.95 158.67-31.95 158.22-28.84 165.46-28.84 164.38-21.11 158.35-21.11ZM127.35-1.21L124.33-1.21 127.93-21.33 130.95-21.33 127.35-1.21ZM139.95-3.78L136.94-3.78 138.6-21.33 141.57-21.33 139.95-3.78Z" transform="translate(0.27000001072883606, 31.989999771118164)"></path></g> <!----> <!----> <!----> <!----> <!----> <!----> <!----></g></g> <g data-gra="path-slogan" fill-rule="" class="tp-slogan iconsvg-slogansvg" fill="#724b3a" transform="translate(34.93500518798828,38.38999938964844)"><!----> <!----> <g transform="scale(1, 1)"><g transform="scale(1)"><path d="M2.06-5.06L6.56-5.06L6.56-8.58L7.73-8.58L7.73 0L6.56 0L6.56-3.98L2.06-3.98L2.06 0L0.89 0L0.89-8.58L2.06-8.58L2.06-5.06ZM10.83-1.03L15.98-1.03L15.98 0L9.66 0L9.66-8.58L15.89-8.58L15.89-7.59L10.83-7.59L10.83-4.92L15.52-4.92L15.52-3.89L10.83-3.89L10.83-1.03ZM18.89-8.58L23.20-1.64L23.20-8.58L24.33-8.58L24.33 0L23.02 0L18.66-6.94L18.61-6.94L18.61 0L17.48 0L17.48-8.58L18.89-8.58ZM31.78 0L30.94-2.48L27.47-2.48L26.58 0L25.41 0L28.64-8.58L29.95-8.58L33.05 0L31.78 0ZM29.20-7.31L27.84-3.52L30.52-3.52L29.25-7.31L29.20-7.31ZM35.48-8.58L39.80-1.64L39.80-8.58L40.92-8.58L40.92 0L39.61 0L35.25-6.94L35.20-6.94L35.20 0L34.08 0L34.08-8.58L35.48-8.58ZM50.81-7.13L50.77-7.13L48.80 0L47.58 0L45.33-8.58L46.55-8.58L48.19-1.59L48.23-1.59L50.16-8.58L51.42-8.58L53.34-1.59L53.39-1.59L54.98-8.58L56.25-8.58L54 0L52.78 0L50.81-7.13ZM58.64-1.03L63.80-1.03L63.80 0L57.47 0L57.47-8.58L63.70-8.58L63.70-7.59L58.64-7.59L58.64-4.92L63.33-4.92L63.33-3.89L58.64-3.89L58.64-1.03ZM65.48-8.58L66.66-8.58L66.66 0L65.48 0L65.48-8.58ZM70.03-8.58L74.34-1.64L74.34-8.58L75.47-8.58L75.47 0L74.16 0L69.80-6.94L69.75-6.94L69.75 0L68.63 0L68.63-8.58L70.03-8.58ZM77.44-8.58L78.61-8.58L78.61 0L77.44 0L77.44-8.58ZM81.98-8.58L86.30-1.64L86.30-8.58L87.42-8.58L87.42 0L86.11 0L81.75-6.94L81.70-6.94L81.70 0L80.58 0L80.58-8.58L81.98-8.58ZM95.63-3.61L93-3.61L93-4.59L96.75-4.59L96.75 0L96 0L95.72-1.08Q94.73 0.09 92.91 0.14L92.91 0.14Q91.17 0.14 90.23-0.75L90.23-0.75Q88.83-2.06 88.88-4.36L88.88-4.36Q89.20-8.63 92.95-8.81L92.95-8.81Q96.14-8.63 96.61-6L96.61-6L95.48-6Q95.02-7.78 92.91-7.83L92.91-7.83Q90.23-7.64 90.09-4.31L90.09-4.31Q90.09-0.75 92.95-0.75L92.95-0.75Q93.98-0.75 94.73-1.31L94.73-1.31Q95.67-2.06 95.63-3.61L95.63-3.61Z" transform="translate(-0.890625, 8.8125)"></path></g></g></g></g></g><defs v-gra="od"></defs></svg>